{"title":"Hop 2011 TS READNFO XViD - IMAGiNE.","uid":6297330,"size":756232136,"categoryP":"video","categoryS":"movies","magnet":"?xt=urn:btih:37aba139c23ae765712aee06e8a207d5ace73154&amp;dn=Hop+2011+TS+READNFO+XViD+-+IMAGiNE.&amp;tr=udp%3A%2F%2Ftracker.openbittorrent.com%3A80&amp;tr=udp%3A%2F%2Fopen.demonii.com%3A1337&amp;tr=udp%3A%2F%2Ftracker.coppersurfer.tk%3A6969&amp;tr=udp%3A%2F%2Fexodus.desync.com%3A6969","seeders":1,"leechers":2,"uploader":"papis_nasty_KVCD","files":3,"time":1302043846,"description":"Ripper ...........: IMAGiNE IMDB Rating.......:5.5/10 \n\nVideo Codec.......: XViD Release Date......:04/04/11\n\nAudio Codec.......:MP3 Theatre Date......:01/04/11\n\nAudio Bitrate.....:128 Runtime.......:1h 30mn\n\nSubtitles.........:NIL Language..........:ENGLISH\n\nResolution...... 640 x 320 IMDb URL.......... http://www.imdb.com/title/tt1411704/\n\n\n\n\n\nDETAILS:\n\n\n\nVideo\n\nID : 0\n\nFormat : MPEG-4 Visual\n\nFormat profile : Advanced Simple@L5\n\nFormat settings, BVOP : 2\n\nFormat settings, QPel : No\n\nFormat settings, GMC : No warppoints\n\nFormat settings, Matrix : Default (MPEG)\n\nMuxing mode : Packed bitstream\n\nCodec ID : XVID\n\nCodec ID/Hint : XviD\n\nDuration : 1h 29mn\n\nBit rate : 968 Kbps\n\nWidth : 640 pixels\n\nHeight : 320 pixels\n\nDisplay aspect ratio : 2.000\n\nFrame rate : 23.976 fps\n\nColor space : YUV\n\nChroma subsampling : 4:2:0\n\nBit depth : 8 bits\n\nScan type : Progressive\n\nCompression mode : Lossy\n\nBits/(Pixel*Frame) : 0.197\n\nStream size : 623 MiB (88%)\n\nWriting library : XviD 1.2.1 (UTC 2008-12-04)\n\n\n\nAudio\n\nID : 1\n\nFormat : MPEG Audio\n\nFormat version : Version 1\n\nFormat profile : Layer 3\n\nMode : Joint stereo\n\nMode extension : MS Stereo\n\nCodec ID : 55\n\nCodec ID/Hint : MP3\n\nDuration : 1h 29mn\n\nBit rate mode : Constant\n\nBit rate : 128 Kbps\n\nChannel(s) : 2 channels\n\nSampling rate : 44.1 KHz\n\nCompression mode : Lossy\n\nStream size : 82.4 MiB (12%)\n\nAlignment : Split accross interleaves\n\nInterleave, duration : 42 ms (1.00 video frame)\n\nInterleave, preload duration : 500 ms","torrent":{"xt":"urn:btih:37aba139c23ae765712aee06e8a207d5ace73154","amp;dn":"Hop+2011+TS+READNFO+XViD+-+IMAGiNE.","amp;tr":["udp%3A%2F%2Ftracker.openbittorrent.com%3A80","udp%3A%2F%2Fopen.demonii.com%3A1337","udp%3A%2F%2Ftracker.coppersurfer.tk%3A6969","udp%3A%2F%2Fexodus.desync.com%3A6969"],"infoHash":"37aba139c23ae765712aee06e8a207d5ace73154","infoHashBuffer":{"type":"Buffer","data":[55,171,161,57,194,58,231,101,113,42,238,6,232,162,7,213,172,231,49,84]},"announce":[],"urlList":[]}}